<?xml version="1.0" encoding="UTF-8"?>
<svg width="720px" height="490px" viewBox="0 0 720 490" version="1.1" xmlns="http://www.w3.org/2000/svg" xmlns:xlink="http://www.w3.org/1999/xlink">
    <!-- Generator: Sketch 61 (89581) - https://sketch.com -->
    <title>illustration/contact-couple</title>
    <desc>Created with Sketch.</desc>
    <defs>
        <radialGradient cx="48.4151451%" cy="3.16970981%" fx="48.4151451%" fy="3.16970981%" r="96.8092974%" gradientTransform="translate(0.484151,0.031697),scale(0.646138,1.000000),rotate(135.909600),translate(-0.484151,-0.031697)" id="radialGradient-1">
            <stop stop-color="#FB721B" offset="0%"></stop>
            <stop stop-color="#FD3260" offset="100%"></stop>
        </radialGradient>
        <linearGradient x1="-5.21807061%" y1="50.1047171%" x2="95.0858946%" y2="50.1047171%" id="linearGradient-2">
            <stop stop-color="#2F2F2F" offset="0%"></stop>
            <stop stop-color="#2F2F2F" offset="100%"></stop>
        </linearGradient>
        <radialGradient cx="48.4151451%" cy="3.16970981%" fx="48.4151451%" fy="3.16970981%" r="84.303602%" gradientTransform="translate(0.484151,0.031697),scale(0.886259,1.000000),rotate(126.964605),translate(-0.484151,-0.031697)" id="radialGradient-3">
            <stop stop-color="#FB721B" offset="0%"></stop>
            <stop stop-color="#FD3260" offset="100%"></stop>
        </radialGradient>
        <linearGradient x1="2.24724248%" y1="58.9905322%" x2="97.8136391%" y2="40.9714995%" id="linearGradient-4">
            <stop stop-color="#FB721B" offset="1.626359%"></stop>
            <stop stop-color="#FD3260" offset="100%"></stop>
        </linearGradient>
        <linearGradient x1="1.78927129%" y1="58.716125%" x2="103.417636%" y2="47.1435899%" id="linearGradient-5">
            <stop stop-color="#FB721B" offset="1.626359%"></stop>
            <stop stop-color="#FD3260" offset="100%"></stop>
        </linearGradient>
        <linearGradient x1="1.85840205%" y1="36.780018%" x2="97.5329169%" y2="62.1206353%" id="linearGradient-6">
            <stop stop-color="#FB721B" offset="1.626359%"></stop>
            <stop stop-color="#FD3260" offset="100%"></stop>
        </linearGradient>
        <linearGradient x1="-3.40539255%" y1="46.4694959%" x2="98.4171256%" y2="61.0932639%" id="linearGradient-7">
            <stop stop-color="#FB721B" offset="1.626359%"></stop>
            <stop stop-color="#FD3260" offset="100%"></stop>
        </linearGradient>
        <linearGradient x1="1.49777983%" y1="41.0011997%" x2="98.3140301%" y2="59.0036369%" id="linearGradient-8">
            <stop stop-color="#FB721B" offset="1.626359%"></stop>
            <stop stop-color="#FD3260" offset="100%"></stop>
        </linearGradient>
        <linearGradient x1="-3.24022123%" y1="47.1922665%" x2="98.4694767%" y2="58.7901157%" id="linearGradient-9">
            <stop stop-color="#FB721B" offset="1.626359%"></stop>
            <stop stop-color="#FD3260" offset="100%"></stop>
        </linearGradient>
        <radialGradient cx="48.4151451%" cy="3.16970981%" fx="48.4151451%" fy="3.16970981%" r="81.4839932%" gradientTransform="translate(0.484151,0.031697),scale(1.000000,0.990882),rotate(123.460896),translate(-0.484151,-0.031697)" id="radialGradient-10">
            <stop stop-color="#FB721B" offset="0%"></stop>
            <stop stop-color="#FD3260" offset="100%"></stop>
        </radialGradient>
    </defs>
    <g id="illustration/contact-couple" stroke="none" stroke-width="1" fill="none" fill-rule="evenodd">
        <g id="illustration/contact">
            <g id="Base">
                <path d="M596.723816,190.172973 C504.00048,240.144144 387.365683,202.134158 343.793686,106.178877 C342.996637,104.318248 342.199588,102.457619 341.402539,100.596991 C296.767811,-4.12982557 242.568497,0.920452367 242.568497,0.920452367 C242.568497,0.920452367 167.11455,-11.0407322 101.756555,65.245045 C36.3985587,141.530822 11.690048,176.35116 2.92251201,239.87834 C-5.84502402,303.40552 0.53136582,409.461357 112.915237,429.662469 C219.98545,449.066168 567.484364,526.830983 639.21875,365.487893 C640.812847,362.03244 673.640278,340.71627 675.234375,337.260817 C686.393057,313.870056 774.697157,209.491566 668.15831,165.102281 C668.15831,165.102281 699.011736,128.506421 614.790254,180.072417 C608.679547,183.52787 602.56884,186.983324 596.723816,190.172973 Z" id="Path" fill="url(#radialGradient-1)" opacity="0.200000003"></path>
                <g id="Group-2" transform="translate(601.124792, 98.380157)"></g>
                <ellipse id="Oval" fill="#E3E9EF" fill-rule="nonzero" cx="111.055456" cy="478.30462" rx="108.66431" ry="11.4295764"></ellipse>
            </g>
            <g id="People__x26__Detail" transform="translate(39.964539, 34.751773)">
                <path d="M79.6235679,121.962273 L79.358156,101.990285 C79.358156,101.990285 89.1783961,102.522871 90.2400436,95.0666625 C91.832515,87.6104536 92.6287507,76.1598472 85.7280415,64.975534 C78.8273322,53.7912208 68.4762684,56.1878593 68.4762684,56.1878593 L56.0019094,72.1654497 L57.8597927,103.854337 L57.8597927,109.712787 L57.5943808,121.163393" id="Path" fill="#C69071" fill-rule="nonzero"></path>
                <path d="M68.4762684,77.2250199 C65.5567376,74.8283814 63.1680306,72.4317428 63.6988543,77.4913131 C64.2296781,82.5508834 64.2296781,105.185803 57.8597927,101.457699 C55.7364975,100.126233 54.4094381,98.2621805 52.8169667,95.0666625 C49.3666121,88.14304 47.7741408,80.420538 48.0395526,72.4317428 C48.3049645,67.6384657 49.3666121,63.1114818 51.2244954,59.9159637 C56.0019094,53.2586344 66.3529733,51.1282891 69.2725041,50.8619959 C72.4574468,50.5957027 83.6047463,51.3945822 86.789689,58.3182047 C89.9746318,65.2418272 86.2588652,64.7092408 86.2588652,64.7092408 C86.2588652,64.7092408 84.1355701,59.9159637 77.7656847,59.6496706 C71.1303873,59.3833774 67.6800327,72.1654497 71.926623,76.6924336 C71.926623,76.6924336 81.2160393,88.4093332 91.5671031,86.0126946 C91.5671031,86.0126946 93.4249864,103.854337 79.358156,101.457699 C66.0875614,99.8599396 68.4762684,77.2250199 68.4762684,77.2250199 Z" id="Path" fill="url(#linearGradient-2)" fill-rule="nonzero"></path>
                <ellipse id="Oval" fill="#C69071" fill-rule="nonzero" transform="translate(66.850674, 77.787644) rotate(-35.705528) translate(-66.850674, -77.787644) " cx="66.8506736" cy="77.7876441" rx="3.45415246" ry="5.58566842"></ellipse>
                <path d="M32.9110747,247.65265 L104.572286,236.73463 C104.572286,236.73463 122.885706,385.858806 114.92335,422.074678 L96.6099291,422.074678 C96.6099291,422.074678 77.5002728,359.229489 79.6235679,329.404654 C81.7468631,299.579819 69.2725041,284.667401 69.2725041,284.667401 C69.2725041,284.667401 68.7416803,322.214738 55.4710857,349.909228 C42.200491,377.603718 21.4983633,424.73761 21.4983633,424.73761 L9.02400436,421.009505 C9.02400436,421.009505 15.3938898,360.560955 30.7877796,336.59457 L32.9110747,247.65265 Z" id="Path" fill="#222C49"></path>
                <polygon id="Path" fill="#C69071" fill-rule="nonzero" points="9.02400436 421.009505 6.63529733 432.460112 11.4127114 438.851148 18.3134206 434.85675 21.4983633 424.73761"></polygon>
                <polygon id="Path" fill="#C69071" fill-rule="nonzero" points="98.2024004 422.074678 100.325696 434.85675 108.02264 440.981493 113.59629 433.791577 113.330878 422.074678"></polygon>
                <path d="M18.3134206,434.85675 C18.3134206,434.85675 28.3990726,439.650027 37.6884888,441.780373 C46.7124932,444.177011 40.8734315,446.307357 40.8734315,446.307357 C40.8734315,446.307357 11.6781233,448.437702 3.18494272,446.307357 C-5.30823786,444.177011 6.63529733,432.460112 6.63529733,432.460112 C6.63529733,432.460112 10.3510638,437.519682 18.3134206,434.85675 Z" id="Path" fill="#1C1C1C" fill-rule="nonzero"></path>
                <path d="M113.59629,433.791577 C113.59629,433.791577 117.312057,433.525284 130.582651,434.85675 C143.853246,436.188216 138.014184,439.91632 138.014184,439.91632 C138.014184,439.91632 113.065466,448.703995 103.510638,447.372529 C94.221222,446.041063 100.325696,434.85675 100.325696,434.85675 C100.325696,434.85675 107.757229,439.117441 113.59629,433.791577 Z" id="Path" fill="#1C1C1C" fill-rule="nonzero"></path>
                <path d="M50.1628478,111.310546 L57.3289689,105.718389 C57.3289689,105.718389 70.5995636,107.316148 79.358156,112.908305 L81.4814512,117.435289 L50.1628478,117.435289 L50.1628478,111.310546 Z" id="Path" fill="#E3E9EF" fill-rule="nonzero"></path>
                <path d="M135.360065,157.645558 C135.360065,157.645558 103.245226,125.157791 86.789689,117.967875 C81.2160393,114.772357 75.3769776,112.642012 70.3341517,111.044253 C62.3717949,108.647614 53.6132024,109.180201 46.1816694,112.642012 C45.1200218,113.174598 44.0583742,113.707185 42.9967267,114.239771 C40.0771959,115.571237 37.9539007,117.701582 36.0960175,119.831927 C32.1148391,124.625205 30.2569558,131.016241 30.2569558,137.407277 L33.1764866,247.65265 C33.1764866,247.65265 92.0979269,254.842566 104.837698,236.73463 L105.899345,172.557976 C117.842881,179.215305 132.175123,183.475996 148.099836,179.481598 L187.646208,168.030992 L187.646208,150.721935 C187.380797,150.721935 150.753955,155.248919 135.360065,157.645558 Z" id="Path" fill="url(#radialGradient-3)"></path>
                <path d="M30.2569558,132.347707 L16.7209493,173.889441 C16.7209493,173.889441 11.4127114,186.937807 20.9675396,193.595136 C30.5223677,200.252465 31.8494272,201.583931 31.8494272,201.583931" id="Path" fill="#E82852"></path>
                <path d="M187.380797,152.585988 C188.177032,152.585988 191.892799,151.787108 191.892799,151.787108 L191.892799,164.036594 L187.380797,165.36806 L187.380797,152.585988 Z" id="Path" fill="#E3E9EF" fill-rule="nonzero"></path>
                <path d="M191.892799,152.852281 C191.892799,152.852281 200.916803,146.461245 203.040098,143.798313 C205.163393,141.135381 206.755865,145.396072 205.959629,146.993831 C204.897981,148.59159 215.779869,146.194952 219.761047,144.330899 C223.742226,142.466847 223.476814,150.988229 218.964812,152.852281 C214.45281,154.716333 191.892799,163.770301 191.892799,163.770301 L191.892799,152.852281 Z" id="Path" fill="#C69071" fill-rule="nonzero"></path>
                <path d="M105.633933,172.557976 C105.633933,172.557976 88.3821604,162.172542 79.8889798,151.787108 C79.8889798,151.787108 94.7520458,183.742289 105.368522,188.535566 L105.633933,172.557976 Z" id="Path" fill="#BA001B" fill-rule="nonzero" opacity="0.41"></path>
                <polygon id="Path" fill="#1C1C1C" fill-rule="nonzero" points="6.63529733 420.210626 7.43153301 414.884762 26.0103655 420.743212 24.1524823 425.802782"></polygon>
                <polygon id="Path" fill="#1C1C1C" fill-rule="nonzero" points="93.4249864 417.281401 94.7520458 422.074678 116.515821 422.074678 116.781233 416.482521"></polygon>
                <g id="Group" transform="translate(570.635570, 87.876747)"></g>
                <g id="Group_1_" transform="translate(647.605019, 67.862767)">
                    <g id="Group-176_1_"></g>
                </g>
                <g id="Group" transform="translate(233.562466, 0.000000)" fill="#65355F" fill-rule="nonzero">
                    <path d="M3.92941799,130.067873 C4.45318713,129.892703 5.01978879,130.175299 5.19495822,130.699068 C5.37012765,131.222838 5.08753174,131.789439 4.56376259,131.964609 L3.70723268,132.25497 C3.43198941,132.349582 3.16707759,132.441953 2.91269142,132.53189 L1.3809954,133.090948 C1.16161667,133.173977 1.00170001,133.236258 0.903276812,133.275758 C0.390728373,133.481458 -0.191527133,133.232708 -0.397227259,132.72016 C-0.602927386,132.207611 -0.35417768,131.625356 0.15837076,131.419656 L0.415483604,131.319062 C0.622040528,131.239353 0.865965899,131.14718 1.14622644,131.043583 L1.86222199,130.782945 C2.48568705,130.559297 3.17575592,130.319928 3.92941799,130.067873 Z" id="Path"></path>
                    <path d="M12.3269702,129.010584 C14.1319525,128.261214 15.9825349,127.460151 17.8685905,126.608143 C18.3719024,126.380776 18.5956003,125.788444 18.3682338,125.285132 C18.1408672,124.78182 17.5485353,124.558123 17.0452233,124.785489 C15.1781151,125.628938 13.3463586,126.421852 11.5601002,127.163448 C11.0500278,127.375213 10.808202,127.960378 11.0199673,128.470451 C11.2317326,128.980523 11.8168977,129.222349 12.3269702,129.010584 Z M23.3286246,124.043128 C25.1228108,123.167546 26.9189825,122.258341 28.7129932,121.3155 C29.2018744,121.058569 29.3899071,120.453969 29.1329759,119.965088 C28.8760448,119.476207 28.2714444,119.288174 27.7825632,119.545105 C26.0063936,120.47857 24.2279784,121.378786 22.4514786,122.245737 C21.9551428,122.487954 21.7491389,123.08667 21.9913561,123.583006 C22.2335732,124.079341 22.8322888,124.285345 23.3286246,124.043128 Z M34.0206267,118.421771 C35.773606,117.4306 37.5111672,116.41198 39.2305809,115.365819 C39.7023951,115.078748 39.8521591,114.46355 39.5650881,113.991736 C39.278017,113.519921 38.662819,113.370158 38.1910047,113.657229 C36.4900289,114.692172 34.7708621,115.700008 33.036244,116.680797 C32.5554873,116.952627 32.3861185,117.562718 32.6579483,118.043475 C32.9297781,118.524232 33.53987,118.693601 34.0206267,118.421771 Z M44.3334088,112.143242 C46.0250882,111.034254 47.6901621,109.900604 49.3264763,108.742184 C49.7772367,108.42307 49.8839575,107.798964 49.5648439,107.348204 C49.2457303,106.897443 48.6216241,106.790722 48.1708637,107.109836 C46.5542362,108.254319 44.9088652,109.374555 43.2369093,110.470613 C42.7750254,110.773403 42.6460544,111.393294 42.9488444,111.855177 C43.2516343,112.317061 43.8715249,112.446032 44.3334088,112.143242 Z M54.1953204,105.155276 C55.8063345,103.919676 57.3814493,102.660634 58.9187859,101.378039 C59.3428617,101.024233 59.3998273,100.393636 59.046022,99.9695605 C58.6922168,99.5454847 58.0616196,99.4885191 57.6375438,99.8423244 C56.1214514,101.107196 54.5676967,102.349163 52.9781533,103.568297 C52.539921,103.904408 52.4571356,104.532138 52.793247,104.97037 C53.1293584,105.408602 53.757088,105.491388 54.1953204,105.155276 Z M63.488766,97.3926029 C64.9919861,96.0211013 66.4505449,94.6265727 67.8627047,93.2089007 C68.2524676,92.8176164 68.2512342,92.1844527 67.85995,91.7946898 C67.4686657,91.404927 66.835502,91.4061603 66.4457391,91.7974446 C65.0562886,93.1923187 63.6207251,94.5648613 62.1407654,95.9151407 C61.7327755,96.2873808 61.7037945,96.9198822 62.0760346,97.3278721 C62.4482747,97.735862 63.0807761,97.7648429 63.488766,97.3926029 Z M72.0410599,88.79406 C73.4032975,87.2769118 74.7120702,85.7366671 75.9657076,84.1732107 C76.3111996,83.7423352 76.2419826,83.112965 75.8111071,82.767473 C75.3802316,82.4219809 74.7508613,82.491198 74.4053693,82.9220735 C73.175245,84.4562058 71.8905519,85.9681122 70.552914,87.4578633 C70.1839334,87.8688034 70.2179484,88.5010541 70.6288886,88.8700346 C71.0398288,89.2390151 71.6720794,89.2050001 72.0410599,88.79406 Z M79.6081603,79.3442974 C80.7865985,77.6792704 81.9030068,75.9909748 82.9557584,74.2793066 C83.2450932,73.8088772 83.0982871,73.1929666 82.6278577,72.9036318 C82.1574284,72.6142969 81.5415178,72.761103 81.2521829,73.2315324 C80.2221731,74.9062248 79.1294852,76.5586491 77.9756694,78.1888869 C77.6566116,78.6396868 77.7634097,79.2637798 78.2142096,79.5828376 C78.6650095,79.9018954 79.2891025,79.7950973 79.6081603,79.3442974 Z M85.9675845,68.985866 C86.9127805,67.181368 87.7883616,65.353692 88.5927639,63.5027604 C88.8128936,62.9962416 88.5807293,62.4071765 88.0742104,62.1870468 C87.5676915,61.9669172 86.9786265,62.1990815 86.7584968,62.7056004 C85.973513,64.51185 85.1188299,66.2959038 84.1959145,68.0578654 C83.9396542,68.5470985 84.128516,69.1514404 84.6177492,69.4077007 C85.1069824,69.663961 85.7113242,69.4750992 85.9675845,68.985866 Z M90.8131457,57.8157717 C91.4787912,55.8978435 92.0695768,53.957463 92.5840616,51.9945871 C92.7240896,51.4603487 92.404519,50.9137479 91.8702806,50.7737199 C91.3360423,50.633692 90.7894414,50.9532626 90.6494134,51.487501 C90.1481267,53.4000233 89.5724383,55.2908184 88.9237063,57.1600136 C88.7426237,57.6817679 89.0187927,58.2515298 89.540547,58.4326124 C90.0623013,58.613695 90.6320632,58.337526 90.8131457,57.8157717 Z M93.8954709,46.0475043 C94.09157,44.955627 94.2646005,43.8574013 94.4143531,42.752824 C94.5394071,41.8197845 94.6475652,40.9127464 94.7405177,40.0188026 C94.7976364,39.4694795 94.3986259,38.9778613 93.8493028,38.9207425 C93.2999797,38.8636238 92.8083614,39.2626343 92.7512427,39.8119574 C92.6603513,40.6860795 92.5545311,41.5735109 92.432281,42.4856389 C92.2865822,43.5603074 92.1180087,44.6302439 91.9269665,45.6939645 C91.8293391,46.237552 92.1908613,46.7573593 92.7344488,46.8549866 C93.2780363,46.9526139 93.7978436,46.5910917 93.8954709,46.0475043 Z M95.1427659,33.9430899 C95.1970783,31.8102303 95.1500217,29.7756751 95.0032174,27.8390076 C94.9614726,27.2883028 94.4811972,26.8757092 93.9304924,26.917454 C93.3797876,26.9591988 92.9671939,27.4394742 93.0089388,27.990179 C93.1505433,29.8582499 93.1960422,31.8254572 93.143414,33.8921771 C93.1293548,34.4442829 93.5655278,34.9032503 94.1176336,34.9173094 C94.6697393,34.9313686 95.1287067,34.4951957 95.1427659,33.9430899 Z M94.145441,21.7404895 C93.6925149,19.617387 93.0905393,17.6454496 92.3433711,15.8245347 C92.1337176,15.3135906 91.5495578,15.0693464 91.0386138,15.2789999 C90.5276697,15.4886534 90.2834254,16.0728131 90.4930789,16.5837572 C91.1939465,18.2918333 91.7610019,20.1493799 92.1894549,22.1577643 C92.3046822,22.6978949 92.8359547,23.0423472 93.3760854,22.9271199 C93.916216,22.8118927 94.2606683,22.2806201 94.145441,21.7404895 Z M89.3460948,10.3512499 C88.1016938,8.6105353 86.6687028,7.08490887 85.0588135,5.77458883 C84.6304753,5.42595605 84.0006159,5.49057008 83.6519831,5.91890831 C83.3033503,6.34724653 83.3679644,6.97710597 83.7963026,7.32573875 C85.2679242,8.5235201 86.5783345,9.91864156 87.7190849,11.5143658 C88.0402704,11.9636522 88.6648614,12.0674984 89.1141478,11.7463128 C89.5634342,11.4251272 89.6672804,10.8005363 89.3460948,10.3512499 Z M79.7159861,2.4937737 C77.871965,1.66371728 75.8907212,1.03203404 73.7880204,0.595222629 C73.2472803,0.482890219 72.7178604,0.830183284 72.605528,1.3709234 C72.4931956,1.91166352 72.8404886,2.44108341 73.3812288,2.55341582 C75.3446764,2.96129901 77.1871345,3.54873299 78.8950536,4.3175253 C79.3986687,4.54421954 79.9907014,4.31973082 80.2173956,3.81611572 C80.4440899,3.31250062 80.2196012,2.72046793 79.7159861,2.4937737 Z M67.6530995,-0.11853402 C65.6707993,-0.185479451 63.6200417,-0.110408227 61.5169159,0.102027759 C60.9674272,0.157531412 60.5669732,0.647974585 60.6224769,1.19746325 C60.6779805,1.74695191 61.1684237,2.14740588 61.7179124,2.09190223 C63.733823,1.88827582 65.6950823,1.81648082 67.5855948,1.88032643 C68.1375649,1.89896734 68.6001365,1.46661863 68.6187774,0.914648556 C68.6374183,0.362678483 68.2050696,-0.0998931125 67.6530995,-0.11853402 Z M55.4230875,1.07005668 C53.4695624,1.48873741 51.4981582,2.01177847 49.5268033,2.63234603 C49.0000035,2.7981786 48.7073817,3.35966806 48.8732143,3.88646783 C49.0390469,4.41326761 49.6005363,4.70588935 50.1273361,4.54005678 C52.0398014,3.93802722 53.9507355,3.43102973 55.842211,3.02564752 C56.3822325,2.90990978 56.7261824,2.37831188 56.6104447,1.83829038 C56.4947069,1.29826888 55.963109,0.954318938 55.4230875,1.07005668 Z M43.7769258,4.71991722 C41.8973707,5.49395777 40.0471864,6.34732116 38.2470865,7.26945426 C37.7555436,7.52125582 37.5611949,8.12385557 37.8129964,8.61539847 C38.064798,9.10694136 38.6673977,9.30129011 39.1589406,9.04948855 C40.9100006,8.15247703 42.7100568,7.3222343 44.5385147,6.56923666 C45.0491901,6.35892971 45.2926869,5.77445797 45.08238,5.26378251 C44.872073,4.75310705 44.2876013,4.50961026 43.7769258,4.71991722 Z M32.950294,10.2740887 C31.1782698,11.3844467 29.4994258,12.5514822 27.9376706,13.7589566 C27.5007458,14.096766 27.4203969,14.7248121 27.7582062,15.1617369 C28.0960156,15.5986617 28.7240617,15.6790107 29.1609865,15.3412013 C30.6700196,14.1744891 32.2950042,13.0448935 34.0122463,11.9688622 C34.4802451,11.6756122 34.621907,11.0584981 34.3286569,10.5904993 C34.0354069,10.1225005 33.4182928,9.98083869 32.950294,10.2740887 Z M23.323499,17.7859943 C21.7553584,19.3470157 20.4124885,20.9305098 19.3232597,22.5106501 C19.0098115,22.9653683 19.1243335,23.5880902 19.5790517,23.9015384 C20.0337699,24.2149867 20.6564919,24.1004647 20.9699401,23.6457465 C21.9862681,22.171363 23.2500749,20.6810992 24.7344914,19.2034216 C25.1259032,18.8137868 25.1273437,18.1806235 24.7377089,17.7892117 C24.3480741,17.3977999 23.7149107,17.3963595 23.323499,17.7859943 Z M16.2050497,27.813919 C15.2996093,29.6235555 14.4982383,31.5165043 13.8171926,33.4631371 C13.6348109,33.9844387 13.9095598,34.5548868 14.4308614,34.7372685 C14.952163,34.9196502 15.522611,34.6449013 15.7049927,34.1235997 C16.3579355,32.2572934 17.1261576,30.4426466 17.993658,28.7088381 C18.2407831,28.2149275 18.0407239,27.6141995 17.5468134,27.3670744 C17.0529028,27.1199493 16.4521747,27.3200084 16.2050497,27.813919 Z M12.1606499,39.3866924 C11.734563,41.4056307 11.4449809,43.4388259 11.2994507,45.4672669 C11.2599287,46.0181357 11.6744572,46.4967421 12.225326,46.5362641 C12.7761948,46.5757861 13.2548011,46.1612576 13.2943231,45.6103888 C13.4332633,43.673802 13.7100139,41.7306981 14.1175446,39.7996853 C14.2315895,39.2593038 13.8859753,38.7287864 13.3455938,38.6147415 C12.8052122,38.5006967 12.2746948,38.8463108 12.1606499,39.3866924 Z M11.3098834,51.6182118 C11.4699838,53.6865654 11.7911112,55.7216772 12.2772556,57.7109036 C12.4083691,58.2473994 12.9495733,58.5760267 13.4860691,58.4449131 C14.0225649,58.3137996 14.3511921,57.7725954 14.2200786,57.2360997 C13.7599771,55.353437 13.4557561,53.4254676 13.3039187,51.463864 C13.2612968,50.9132264 12.7803648,50.5013983 12.2297272,50.5440202 C11.6790895,50.5866422 11.2672615,51.0675741 11.3098834,51.6182118 Z M14.279021,63.6291684 C15.1013773,65.502886 16.0884338,67.3124098 17.242148,69.0498337 C17.5476624,69.50992 18.1683044,69.6352253 18.6283906,69.3297109 C19.0884769,69.0241965 19.2137822,68.4035545 18.9082678,67.9434682 C17.8184383,66.3022507 16.8866195,64.5939917 16.1103995,62.8253943 C15.8884434,62.3196731 15.2985444,62.089636 14.7928232,62.3115921 C14.2871019,62.5335482 14.0570649,63.1234472 14.279021,63.6291684 Z M21.0453468,73.8663562 C22.4073397,75.333435 23.9097784,76.7295402 25.5536378,78.0506096 C25.9841345,78.3965735 26.6135802,78.3280461 26.9595441,77.8975494 C27.3055081,77.4670527 27.2369807,76.837607 26.806484,76.4916431 C25.2377847,75.2309754 23.80655,73.9010348 22.5110805,72.505612 C22.1353214,72.1008608 21.5025928,72.0773581 21.0978416,72.4531172 C20.6930904,72.8288764 20.6695877,73.461605 21.0453468,73.8663562 Z M30.580092,81.5828931 C32.2619526,82.6175971 34.0521742,83.5900525 35.9514351,84.4982818 C36.4496816,84.736544 37.0467399,84.5257851 37.2850021,84.0275387 C37.5232643,83.5292922 37.3125054,82.9322339 36.8142589,82.6939717 C34.977752,81.8157514 33.249345,80.876874 31.628076,79.8794467 C31.1576822,79.590054 30.5417536,79.7367842 30.2523608,80.207178 C29.962968,80.6775717 30.1096983,81.2935004 30.580092,81.5828931 Z M41.5928787,86.8860044 C43.4346705,87.5736048 45.3593027,88.2101327 47.3672653,88.7945172 C47.8975489,88.9488475 48.452538,88.6440772 48.6068683,88.1137937 C48.7611986,87.5835102 48.4564283,87.028521 47.9261448,86.8741907 C45.9650824,86.3034558 44.0873465,85.6824377 42.2923853,85.0123207 C41.7749819,84.8191573 41.1989536,85.0820058 41.0057902,85.5994092 C40.8126268,86.1168127 41.0754752,86.6928409 41.5928787,86.8860044 Z M53.2669,90.3068929 C55.1843869,90.7364527 57.1667914,91.1241351 59.2144615,91.4692928 C59.7590635,91.5610916 60.2749684,91.1940221 60.3667672,90.64942 C60.458566,90.1048179 60.0914964,89.588913 59.5468943,89.4971143 C57.5339636,89.1578122 55.5864848,88.7769599 53.704108,88.3552656 C53.165181,88.2345339 52.630422,88.5735483 52.5096903,89.1124753 C52.3889587,89.6514023 52.727973,90.1861613 53.2669,90.3068929 Z M65.1691943,92.3302108 C67.1218967,92.5681594 69.1271053,92.7711221 71.1850714,92.9386733 C71.7355348,92.9834898 72.2181045,92.573582 72.2629209,92.0231186 C72.3077374,91.4726552 71.8978296,90.9900855 71.3473662,90.9452691 C69.3157507,90.7798632 67.3370817,90.5795868 65.4111168,90.3448964 C64.8628874,90.2780913 64.3643034,90.6683629 64.2974983,91.2165923 C64.2306933,91.7648218 64.6209648,92.2634058 65.1691943,92.3302108 Z M77.2526922,93.3226784 C79.2208293,93.4131073 81.2325603,93.4737516 83.2880718,93.5043142 C83.8402955,93.512525 84.2946174,93.0715155 84.3028282,92.5192917 C84.311039,91.967068 83.8700294,91.5127461 83.3178057,91.5045353 C81.2828232,91.4742779 79.2917767,91.4142571 77.3444883,91.3247861 C76.7927856,91.2994373 76.3249929,91.7261315 76.2996441,92.2778342 C76.2742953,92.8295369 76.7009895,93.2973296 77.2526922,93.3226784 Z M89.3073199,93.5091743 C90.843004,93.4896012 92.4011455,93.4543815 93.9818121,93.4034121 L95.337059,93.3574568 C95.8890222,93.3386116 96.3211996,92.87588 96.3023544,92.3239169 C96.2835092,91.7719537 95.8207776,91.3397763 95.2688145,91.3586215 L93.9159285,91.4044981 C92.3496018,91.455004 90.8044486,91.4899302 89.281831,91.5093367 C88.7295911,91.5163753 88.2876181,91.9697601 88.2946567,92.522 C88.3016953,93.0742399 88.7550801,93.5162129 89.3073199,93.5091743 Z M101.348464,93.1461887 L107.356301,92.922966 C107.908184,92.901904 108.338499,92.4374404 108.317437,91.8855574 C108.296375,91.3336744 107.831912,90.9033589 107.280029,90.9244209 C105.284405,91.0005816 103.283093,91.0749485 101.276214,91.1474941 C100.72429,91.1674454 100.29304,91.6310421 100.312991,92.1829663 C100.332943,92.7348906 100.796539,93.1661399 101.348464,93.1461887 Z M113.35477,92.6879765 C115.363236,92.60726 117.365149,92.5247581 119.360366,92.4405018 C119.912159,92.4172001 120.340586,91.9509938 120.317284,91.3992008 C120.293983,90.8474078 119.827776,90.418981 119.275983,90.4422828 C117.282121,90.5264818 115.281565,90.6089277 113.274458,90.6895897 C112.722619,90.7117671 112.293243,91.1770996 112.315421,91.7289388 C112.337598,92.2807781 112.80293,92.7101539 113.35477,92.6879765 Z M125.356594,92.181136 L131.36048,91.9090397 C131.912173,91.8834633 132.338674,91.4154946 132.313097,90.8638024 C132.287521,90.3121102 131.819552,89.8856091 131.26786,89.9111855 L125.268114,90.1830942 C124.71637,90.2075273 124.2889,90.6746113 124.313333,91.2263553 C124.337766,91.7780993 124.80485,92.2055692 125.356594,92.181136 Z M137.367107,91.6242777 L143.369322,91.3270482 C143.920902,91.2991467 144.345426,90.8293846 144.317525,90.277805 C144.289624,89.7262255 143.819861,89.3017006 143.268282,89.3296021 C141.278346,89.4302623 139.278948,89.5292829 137.2703,89.626622 C136.718663,89.6533543 136.293143,90.1222156 136.319876,90.673853 C136.346608,91.2254905 136.815469,91.6510101 137.367107,91.6242777 Z M149.364253,91.0173612 L153.371469,90.8031165 C154.036829,90.7670571 154.700929,90.7308231 155.363757,90.6944163 C155.915211,90.6641269 156.337698,90.1925311 156.307408,89.6410776 C156.277119,89.089624 155.805523,88.667137 155.25407,88.6974264 L149.258925,89.0201366 C148.707407,89.049222 148.283892,89.5198944 148.312977,90.0714128 C148.342063,90.6229311 148.812735,91.0464466 149.364253,91.0173612 Z M161.363511,90.3582013 L165.372692,90.1260139 C166.037801,90.086989 166.701358,90.0478021 167.36335,90.0084557 C167.914661,89.9756876 168.335024,89.5021973 168.302256,88.9508855 C168.269488,88.3995737 167.795998,87.979211 167.244686,88.011979 L161.249383,88.3614602 C160.697998,88.3929759 160.276561,88.86551 160.308076,89.4168949 C160.339592,89.9682797 160.812126,90.3897169 161.363511,90.3582013 Z M173.364258,89.6448017 L179.360475,89.2672256 C179.911626,89.2318543 180.329748,88.7563842 180.294377,88.2052333 C180.259005,87.6540824 179.783535,87.2359603 179.232384,87.2713316 L173.240946,87.6486068 C172.689712,87.6826584 172.270453,88.1571262 172.304505,88.7083602 C172.338556,89.2595942 172.813024,89.6788533 173.364258,89.6448017 Z M185.354628,88.8751358 L189.366915,88.6042368 C190.030542,88.5588575 190.691603,88.5133666 191.350071,88.4677685 C191.901036,88.4296148 192.316752,87.9520395 192.278598,87.4010742 C192.240444,86.8501089 191.762869,86.434393 191.211904,86.4725467 L187.233631,86.7445789 C186.565477,86.7896917 185.89479,86.8346885 185.221599,86.8795649 C184.670537,86.9162999 184.253593,87.3928032 184.290328,87.9438649 C184.327063,88.4949266 184.803566,88.9118708 185.354628,88.8751358 Z M197.343638,88.0446634 L201.856568,87.715102 C202.352047,87.6783832 202.845516,87.6416338 203.336953,87.604857 C203.887698,87.5636418 204.300753,87.0837635 204.259538,86.5330188 C204.218323,85.9822741 203.738445,85.5692187 203.1877,85.6104339 L198.714797,85.9402853 C198.211849,85.976835 197.706938,86.0133482 197.200087,86.0498218 C196.649227,86.0894624 196.234801,86.5681579 196.274442,87.1190182 C196.314082,87.6698785 196.792778,88.084304 197.343638,88.0446634 Z" id="Path"></path>
                </g>
                <path d="M341.498269,267.63316 L300.299191,277.539592 C297.826653,278.065643 296.372143,280.660827 296.83184,283.35213 L300.694528,305.32023 C301.128946,308.119092 303.422186,309.881229 305.883735,309.304782 L347.082813,299.39835 C349.555351,298.8723 351.009861,296.277116 350.550164,293.585812 L346.690555,271.636315 C346.253058,268.81885 343.959818,267.056714 341.498269,267.63316 Z M348.692465,293.907787 C348.991746,295.659993 348.097833,297.25494 346.666126,297.559738 L305.448395,307.470339 C304.165903,307.770657 302.92654,306.865947 302.589372,305.20706 L298.689539,283.030155 C298.390259,281.27795 299.284171,279.683002 300.715878,279.378204 L341.933609,269.467603 C343.216101,269.167285 344.455464,270.071995 344.792632,271.730883 L348.692465,293.907787 Z" id="Path" fill="url(#linearGradient-4)" fill-rule="nonzero"></path>
                <path d="M343.044121,268.783239 L344.337883,270.154703 L324.196754,289.154703 C323.976184,289.362776 323.671285,289.45028 323.378123,289.395913 L323.253481,289.363865 L298.39461,281.130532 L298.987394,279.340744 L323.311,287.397 L343.044121,268.783239 Z" id="Path" fill="url(#linearGradient-5)" fill-rule="nonzero"></path>
                <path d="M414.471073,21.1252835 L412.845562,31.581662 C412.639759,32.7157976 413.246511,33.9239725 414.185722,34.2476568 L430.805651,38.9799123 C431.759483,39.3092464 432.694973,38.4164416 432.918681,37.1828829 L434.544191,26.7265044 C434.749994,25.5923688 434.143243,24.3841938 433.204031,24.0605096 L416.604329,19.3346135 C415.630271,18.99892 414.694781,19.8917248 414.471073,21.1252835 Z M416.350901,20.0699685 L432.97083,24.802224 C433.505197,24.9869965 433.919635,25.812233 433.777248,26.5973737 L432.151738,37.0537522 C432.003621,37.869797 431.46406,38.3847386 431.038853,38.2381979 L414.418924,33.5059423 C413.884557,33.3211699 413.470119,32.4959334 413.612505,31.7107927 L415.238016,21.2544142 C415.386133,20.4383693 415.925694,19.9234277 416.350901,20.0699685 Z" id="Path" fill="url(#linearGradient-6)" fill-rule="nonzero"></path>
                <path d="M415.476538,19.3859223 L423.868,28.199 L434.058934,24.3978252 L434.33082,25.1265574 L423.899447,29.0184493 C423.777857,29.0638139 423.643486,29.0450875 423.53993,28.9723137 L423.481843,28.9222441 L414.913216,19.9222441 L415.476538,19.3859223 Z" id="Path" fill="url(#linearGradient-7)" fill-rule="nonzero"></path>
                <path d="M436.369339,160.156802 L433.163308,182.567731 C432.681329,184.969096 434.104453,187.536006 436.256986,188.207987 L475.55186,197.277277 C477.78049,197.627169 479.825972,195.957084 480.321788,193.480531 L483.527819,171.069602 L483.56642,170.850897 C483.922878,168.514407 482.521446,166.080964 480.434142,165.429346 L441.155,156.364 L441.195801,156.375378 C439.032822,155.700136 436.890857,157.551871 436.369339,160.156802 Z M440.791807,157.865888 L480.030149,166.919856 C481.352137,167.334882 482.342899,169.121935 482.005236,170.808529 L478.799205,193.219457 C478.463974,194.887832 477.145905,195.964003 475.844758,195.760906 L436.660979,186.717477 C435.33899,186.302451 434.348228,184.515398 434.685891,182.828804 L437.891923,160.417875 C438.233272,158.718721 439.495883,157.577046 440.611927,157.818054 L440.791807,157.865888 Z" id="Path" fill="url(#linearGradient-8)" fill-rule="nonzero"></path>
                <path d="M439.392609,156.833549 L458.425,175.913 L481.561818,166.779689 L482.129309,168.217122 L458.521466,177.537383 C458.270647,177.636405 457.989326,177.596731 457.777106,177.4391 L457.690675,177.364383 L438.298518,157.924981 L439.392609,156.833549 Z" id="Path" fill="url(#linearGradient-9)" fill-rule="nonzero"></path>
                <path d="M552.056738,330.73612 L517.28778,323.812497 C515.695308,323.546204 514.633661,321.948445 514.899073,320.350686 L518.084015,304.373096 C518.349427,302.775337 519.941899,301.710164 521.53437,301.976457 L556.303328,308.90008 C557.895799,309.166373 558.957447,310.764132 558.692035,312.361891 L555.507092,328.339481 C555.24168,329.93724 553.649209,331.002413 552.056738,330.73612 Z" id="Path" fill="#FEBFBC" fill-rule="nonzero"></path>
                <polyline id="Path" fill="#FEA0AD" fill-rule="nonzero" points="519.676487 302.509044 536.662848 316.356289 557.895799 310.231546"></polyline>
                <path d="M267.535188,204.513156 L242.851882,213.300831 C241.790235,213.833417 240.463175,213.034538 240.197763,211.969365 L236.216585,200.785052 C235.685761,199.719879 236.481997,198.388413 237.543644,198.12212 L262.22695,189.334445 C263.288598,188.801859 264.615657,189.600739 264.881069,190.665911 L268.862248,201.850225 C269.12766,202.915397 268.596836,203.98057 267.535188,204.513156 Z" id="Path" fill="#FEBFBC" fill-rule="nonzero"></path>
                <polyline id="Path" fill="#FEA0AD" fill-rule="nonzero" points="236.216585 198.921 252.40671 201.051345 263.55401 189.068152"></polyline>
                <g id="Group-4" transform="translate(457.535461, 84.748227) rotate(12.000000) translate(-457.535461, -84.748227) translate(433.035461, 67.248227)">
                    <polygon id="Path" fill="#BA001B" fill-rule="nonzero" opacity="0.41" points="-1.59161573e-12 1.24344979e-14 48.0395526 8.52138151 7.96235679 11.4506064"></polygon>
                    <polygon id="Path" fill="#E82852" points="7.96235679 11.4506064 6.63529733 25.0315582 11.9435352 18.9068152 48.0395526 8.52138151"></polygon>
                    <path d="M11.9435352,18.9068152 C11.9435352,18.9068152 21.7637752,35.1506987 22.0291871,34.8844056 C22.294599,34.6181124 48.0395526,8.25508834 48.0395526,8.25508834 L11.9435352,18.9068152 Z" id="Path" fill="#BA001B" fill-rule="nonzero" opacity="0.41"></path>
                    <polygon id="Path" fill="#E82852" points="6.63529733 25.0315582 14.0668303 22.3686265 11.9435352 18.9068152"></polygon>
                </g>
            </g>
        </g>
        <g id="Group-3" transform="translate(543.000000, 98.662134)">
            <ellipse id="Oval" fill="#E3E9EF" fill-rule="nonzero" cx="84.3358716" cy="374.858011" rx="84" ry="11.4295764"></ellipse>
            <path d="M11.0223436,28.7596626 C11.0223436,28.7596626 -1.45201538,8.78767468 0.140455974,-5.32907052e-15 C0.140455974,-5.32907052e-15 5.97951762,12.2494859 8.36822466,10.6517269 C10.7569317,9.32026103 9.69528412,5.32586344 11.0223436,7.45620882 C12.6148149,9.5865542 15.003522,25.0315582 15.003522,25.0315582" id="Path" fill="#E5B68C" fill-rule="nonzero"></path>
            <path d="M159.653004,175.220907 C159.653004,175.220907 161.776299,198.654706 156.468061,205.844622 C156.468061,205.844622 156.733473,192.26367 153.813942,192.529963 C151.159823,192.796257 150.363587,196.524361 149.832764,194.127723 C149.30194,191.731084 154.079354,176.552373 154.079354,176.552373" id="Path" fill="#E5B68C" fill-rule="nonzero"></path>
            <path d="M83.2143785,156.314092 C82.1527309,175.753494 74.7211979,284.667401 87.1955569,338.192329 L98.6082683,338.192329 C98.6082683,338.192329 110.551803,266.825759 109.224744,231.408767 C109.224744,231.408767 119.84122,305.171975 128.865224,339.790088 L140.012524,339.790088 C140.012524,339.790088 153.283118,219.95816 130.723107,156.846678" id="Path" fill="#60375D" fill-rule="nonzero"></path>
            <path d="M76.8444931,84.6812288 C62.7776627,84.6812288 45.5258897,76.1598472 38.3597686,71.8991565 C31.1936475,67.9047589 10.2261079,29.2922489 10.2261079,29.2922489 L15.5343458,24.4989718 C15.5343458,24.4989718 36.5018853,47.4001846 46.5875373,62.3126023 C46.5875373,62.3126023 80.2948477,57.253032 94.361678,58.3182047 C108.428508,59.1170842 139.4817,56.9867388 148.505704,76.1598472 C157.529709,95.3329556 162.307123,126.489257 162.307123,126.489257 C162.307123,126.489257 164.165006,157.911851 160.183827,178.416425 L154.079354,177.351253 C154.079354,177.351253 149.832764,140.070209 149.832764,129.684775 C149.832764,119.299341 137.092993,97.463301 137.092993,97.463301 C132.846403,106.517269 136.827581,158.444437 137.358405,169.362458 C137.358405,170.42763 136.827581,171.492803 135.765933,172.025389 C113.471334,181.079357 94.0962661,178.416425 81.887319,174.422028 C80.8256715,174.155735 80.2948477,173.090562 80.0294358,172.025389 C79.498612,162.172542 77.6407288,115.571237 76.8444931,84.6812288 Z" id="Path" fill="url(#radialGradient-10)"></path>
            <path d="M87.1955569,337.926036 L87.1955569,353.903626 C87.1955569,353.903626 64.1047222,374.940786 67.2896649,375.739666 C70.7400195,376.538545 90.1150877,367.484578 92.2383829,365.620525 C94.361678,363.756473 95.1579137,367.218284 95.1579137,367.218284 L98.0774445,367.218284 L98.0774445,337.926036" id="Path" fill="#1C1C1C" fill-rule="nonzero"></path>
            <path d="M128.865224,339.790088 L128.865224,362.158714 C128.865224,362.158714 119.575808,382.663288 123.026162,383.195875 C126.476517,383.994754 138.950876,373.343027 139.216288,370.413803 L140.012524,339.790088 L128.865224,339.790088 Z" id="Path" fill="#1C1C1C" fill-rule="nonzero"></path>
            <path d="M106.570625,4.7932771 C100.466152,5.32586344 95.4233256,9.85284737 92.7692067,15.445004 C90.1150877,21.0371606 89.5842639,27.1619036 89.0534402,33.2866465 C88.5226164,39.4113895 87.9917926,45.5361324 87.1955569,51.6608754 C86.930145,54.3238071 85.3376736,57.5193252 88.2572045,57.5193252 C89.318852,57.7856184 91.972971,57.7856184 93.0346185,58.0519115 C94.0962661,58.3182047 94.8925018,59.3833774 95.4233256,60.1822569 C98.6082683,65.5081204 100.996975,71.6328633 102.324035,77.7576063 C102.854859,79.8879517 103.12027,82.2845902 104.712742,83.6160561 C107.101449,85.4801083 110.551803,84.1486424 112.675099,82.018297 C114.798394,79.8879517 115.860041,76.9587268 117.717925,74.8283814 C119.575808,72.4317428 125.149458,60.4485501 127.803577,61.5137228 C131.784755,46.335012 130.988519,41.0091485 129.66146,25.2978514 C129.130636,17.8416425 127.272753,9.32026103 120.637455,5.32586344 C116.390865,3.46181124 106.570625,4.7932771 106.570625,4.7932771" id="Fill-166_1_" fill="#60375D" fill-rule="nonzero"></path>
            <path d="M119.310396,33.5529397 C117.452513,46.0687188 110.551803,55.1226866 103.651094,54.3238071 C97.0157969,53.2586344 92.7692067,42.3406144 94.6270899,30.0911285 C96.4849732,17.5753494 103.385682,8.52138151 110.286392,9.32026103 C117.187101,10.1191405 121.168279,21.0371606 119.310396,33.5529397" id="Fill-168_1_" fill="#E5B68C" fill-rule="nonzero"></path>
        </g>
    </g>
</svg>