<?xml version="1.0" encoding="UTF-8"?>
<svg width="720px" height="490px" viewBox="0 0 720 490" version="1.1" xmlns="http://www.w3.org/2000/svg" xmlns:xlink="http://www.w3.org/1999/xlink">
    <!-- Generator: Sketch 61 (89581) - https://sketch.com -->
    <title>illustration/gold</title>
    <desc>Created with Sketch.</desc>
    <defs>
        <linearGradient x1="-21.7171015%" y1="-22.7827427%" x2="98.8349915%" y2="100%" id="linearGradient-1">
            <stop stop-color="#F8D99F" offset="0%"></stop>
            <stop stop-color="#FB9017" offset="68.5599662%"></stop>
            <stop stop-color="#F4C670" offset="100%"></stop>
        </linearGradient>
        <path d="M231.973608,121.021266 C253.050797,52.974504 366.467154,-67.243187 453.284097,47.7401377 C532.323558,152.427464 330.367197,384.247079 268.858689,476.958175 C162.603308,411.528596 5.39382044,293.755354 0.124523061,162.896196 C-5.14477431,16.3339398 158.203444,-40.678778 226.70431,121.021266" id="path-2"></path>
        <linearGradient x1="8.46107644%" y1="-22.7827427%" x2="78.2854847%" y2="100%" id="linearGradient-4">
            <stop stop-color="#F8D99F" offset="0%"></stop>
            <stop stop-color="#FB9017" offset="68.5599662%"></stop>
            <stop stop-color="#F4C670" offset="100%"></stop>
        </linearGradient>
        <linearGradient x1="2.18831086%" y1="-22.7827427%" x2="82.5568572%" y2="100%" id="linearGradient-5">
            <stop stop-color="#F8D99F" offset="0%"></stop>
            <stop stop-color="#FB9017" offset="68.5599662%"></stop>
            <stop stop-color="#F4C670" offset="100%"></stop>
        </linearGradient>
        <linearGradient x1="-23.4279861%" y1="1.72312708%" x2="100%" y2="83.1650547%" id="linearGradient-6">
            <stop stop-color="#F8D99F" offset="0%"></stop>
            <stop stop-color="#FB9017" offset="68.5599662%"></stop>
            <stop stop-color="#F4C670" offset="100%"></stop>
        </linearGradient>
        <linearGradient x1="-23.4279861%" y1="46.0777157%" x2="100%" y2="52.6945153%" id="linearGradient-7">
            <stop stop-color="#F8D99F" offset="0%"></stop>
            <stop stop-color="#FB9017" offset="68.5599662%"></stop>
            <stop stop-color="#F4C670" offset="100%"></stop>
        </linearGradient>
        <linearGradient x1="-10.1077165%" y1="-22.7827427%" x2="90.9297052%" y2="100%" id="linearGradient-8">
            <stop stop-color="#F8D99F" offset="0%"></stop>
            <stop stop-color="#FB9017" offset="68.5599662%"></stop>
            <stop stop-color="#F4C670" offset="100%"></stop>
        </linearGradient>
        <linearGradient x1="-23.4279861%" y1="43.1093261%" x2="100%" y2="54.7337278%" id="linearGradient-9">
            <stop stop-color="#F8D99F" offset="0%"></stop>
            <stop stop-color="#FB9017" offset="68.5599662%"></stop>
            <stop stop-color="#F4C670" offset="100%"></stop>
        </linearGradient>
        <linearGradient x1="45.684673%" y1="-22.7827427%" x2="52.9384757%" y2="100%" id="linearGradient-10">
            <stop stop-color="#F8D99F" offset="0%"></stop>
            <stop stop-color="#FB9017" offset="68.5599662%"></stop>
            <stop stop-color="#F4C670" offset="100%"></stop>
        </linearGradient>
        <linearGradient x1="49.5423463%" y1="-22.7827427%" x2="50.3116343%" y2="100%" id="linearGradient-11">
            <stop stop-color="#F8D99F" offset="0%"></stop>
            <stop stop-color="#FB9017" offset="68.5599662%"></stop>
            <stop stop-color="#F4C670" offset="100%"></stop>
        </linearGradient>
        <linearGradient x1="42.244169%" y1="-22.7827427%" x2="55.28125%" y2="100%" id="linearGradient-12">
            <stop stop-color="#F8D99F" offset="0%"></stop>
            <stop stop-color="#FB9017" offset="68.5599662%"></stop>
            <stop stop-color="#F4C670" offset="100%"></stop>
        </linearGradient>
        <linearGradient x1="32.5275464%" y1="-22.7827427%" x2="61.89768%" y2="100%" id="linearGradient-13">
            <stop stop-color="#F8D99F" offset="0%"></stop>
            <stop stop-color="#FB9017" offset="68.5599662%"></stop>
            <stop stop-color="#F4C670" offset="100%"></stop>
        </linearGradient>
        <radialGradient cx="48.4151451%" cy="3.16970981%" fx="48.4151451%" fy="3.16970981%" r="176.792602%" gradientTransform="translate(0.484151,0.031697),scale(1.000000,0.393939),rotate(104.721819),translate(-0.484151,-0.031697)" id="radialGradient-14">
            <stop stop-color="#FB721B" offset="0%"></stop>
            <stop stop-color="#FD3260" offset="100%"></stop>
        </radialGradient>
        <linearGradient x1="44.0058787%" y1="-22.7827427%" x2="54.0816327%" y2="100%" id="linearGradient-15">
            <stop stop-color="#F8D99F" offset="0%"></stop>
            <stop stop-color="#FB9017" offset="68.5599662%"></stop>
            <stop stop-color="#F4C670" offset="100%"></stop>
        </linearGradient>
        <linearGradient x1="-23.4279861%" y1="31.8043143%" x2="100%" y2="62.5%" id="linearGradient-16">
            <stop stop-color="#F8D99F" offset="0%"></stop>
            <stop stop-color="#FB9017" offset="68.5599662%"></stop>
            <stop stop-color="#F4C670" offset="100%"></stop>
        </linearGradient>
        <linearGradient x1="37.2614547%" y1="18.9936063%" x2="53.9488276%" y2="61.0234688%" id="linearGradient-17">
            <stop stop-color="#F8D99F" offset="0%"></stop>
            <stop stop-color="#FB9017" offset="100%"></stop>
        </linearGradient>
        <linearGradient x1="-5.21807061%" y1="50.1047171%" x2="95.0858946%" y2="50.1047171%" id="linearGradient-18">
            <stop stop-color="#2F2F2F" offset="0%"></stop>
            <stop stop-color="#2F2F2F" offset="100%"></stop>
        </linearGradient>
        <linearGradient x1="-5.21807061%" y1="50.1047171%" x2="95.0858946%" y2="50.1047171%" id="linearGradient-19">
            <stop stop-color="#2F2F2F" offset="0%"></stop>
            <stop stop-color="#2F2F2F" offset="100%"></stop>
        </linearGradient>
        <linearGradient x1="21.0654924%" y1="88.801438%" x2="80.328893%" y2="16.7652926%" id="linearGradient-20">
            <stop stop-color="#F8D99F" offset="0%"></stop>
            <stop stop-color="#FB9017" offset="68.56%"></stop>
        </linearGradient>
        <linearGradient x1="-23.4279861%" y1="-15.3230156%" x2="100%" y2="94.8753463%" id="linearGradient-21">
            <stop stop-color="#F8D99F" offset="0%"></stop>
            <stop stop-color="#FB9017" offset="68.5599662%"></stop>
            <stop stop-color="#F4C670" offset="100%"></stop>
        </linearGradient>
        <linearGradient x1="-20.1282781%" y1="-22.7827427%" x2="97.7530992%" y2="100%" id="linearGradient-22">
            <stop stop-color="#F8D99F" offset="0%"></stop>
            <stop stop-color="#FB9017" offset="68.5599662%"></stop>
            <stop stop-color="#F4C670" offset="100%"></stop>
        </linearGradient>
        <linearGradient x1="-21.0784434%" y1="-22.7827427%" x2="98.4001041%" y2="100%" id="linearGradient-23">
            <stop stop-color="#F8D99F" offset="0%"></stop>
            <stop stop-color="#FB9017" offset="68.5599662%"></stop>
            <stop stop-color="#F4C670" offset="100%"></stop>
        </linearGradient>
    </defs>
    <g id="illustration/gold" stroke="none" stroke-width="1" fill="none" fill-rule="evenodd">
        <g transform="translate(124.000000, 0.000000)">
            <g id="Group-14" transform="translate(0.000000, 13.041825)">
                <mask id="mask-3" fill="white">
                    <use xlink:href="#path-2"></use>
                </mask>
                <use id="Path-Copy" fill="url(#linearGradient-1)" opacity="0.200000003" xlink:href="#path-2"></use>
                <g id="Group-3" mask="url(#mask-3)">
                    <g transform="translate(32.604563, 238.479087)" id="Path">
                        <path d="M361.156214,39.7268048 C359.27706,41.5982814 356.861005,42.9350503 354.444949,44.0044655 C350.41819,45.3412344 345.85453,43.4697579 341.559321,44.2718193 C332.968902,46.1432958 330.284396,57.1048013 330.552847,65.9274764 C330.821297,67.5315992 330.552847,68.8683681 330.015945,70.4724909 C329.210594,71.8092598 328.136791,73.1460288 326.794538,73.9480902 C316.324965,82.5034115 312.298206,96.9405163 313.103558,110.308206 C313.640459,121.804419 317.398768,132.765924 321.425526,143.460076 C350.41819,110.57556 375.652546,74.7501515 394.980989,36.5185593 C382.632261,33.8450214 370.551985,32.7756062 361.156214,39.7268048 Z" fill="url(#linearGradient-4)" fill-rule="evenodd" opacity="0.300000012"></path>
                        <path d="M149.54935,156.316793 C148.483045,148.300269 146.883586,140.016528 141.285482,134.404961 C135.687378,128.793395 124.757747,127.724525 120.492525,134.404961 C118.893066,113.027565 115.160997,91.6501682 109.296317,71.074424 C106.363976,61.1873781 102.631907,50.4986798 94.1014628,44.3526783 C85.837595,38.2066768 71.7090468,39.0083292 67.1772483,48.3609402 C64.2449081,30.9918055 47.1840196,18.6998024 29.8565548,15.7604104 C23.9918744,14.4243231 18.127194,14.6915406 12.2625136,16.2948453 C7.19756231,17.8981501 3.19891658,21.371977 0,25.6474563 C34.6549297,94.3223428 89.5696644,153.644618 151.681961,203.079848 C152.215114,187.581235 151.415385,171.815405 149.54935,156.316793 Z" fill="url(#linearGradient-5)" fill-rule="evenodd" opacity="0.300000012"></path>
                        <path d="M299.197514,154.440367 C295.454569,154.173613 291.711623,152.839844 288.770738,150.439059 C286.631912,147.77152 285.027792,144.570474 284.225733,141.369428 C281.284847,131.76629 277.007195,121.36289 268.184539,116.294567 C263.906887,113.893782 258.827175,112.826767 255.08423,109.62572 C249.202459,104.824151 248.400399,96.5547819 245.99422,89.3524281 C241.716568,75.7479819 229.418319,64.2775665 215.248598,64.2775665 C208.03006,64.5443204 201.078876,66.945105 195.464458,71.2131665 C186.909154,76.2814896 180.225324,84.0173512 176.215025,93.0869819 C173.006786,101.089597 173.006786,110.159228 170.333254,118.161844 C166.857662,128.29849 159.104418,136.567859 154.29206,146.170997 C148.677642,157.374659 147.073522,170.445597 145.736756,182.983028 C144.934696,189.118367 143.865283,198.187997 142.528517,208.591397 C154.826766,218.728044 167.392368,229.131444 180.225324,238.467828 C200.811523,253.672797 248.667752,274.008324 268.184539,257.469586 C293.850449,235.862524 298.930161,190.71889 321.387833,165.644028 C316.040768,160.308951 309.089584,156.04089 299.197514,154.440367 Z" fill="#FE9FAF" fill-rule="nonzero" opacity="0.67"></path>
                        <path d="M294.971188,135.66778 C291.50089,135.400654 288.030592,134.065025 285.361132,132.195145 C283.225565,129.791013 281.890835,126.852629 281.089997,123.647119 C278.420537,114.564842 273.882455,103.078433 264.539345,97.7359174 C262.670724,96.6674142 260.802102,96.1331627 259.200426,95.3317853 C256.530966,94.2632821 253.861506,93.1947789 251.725938,91.3248984 C247.454802,87.8522631 246.120072,82.2426214 244.518396,76.6329798 C243.984504,75.030225 243.717558,73.1603445 243.183666,71.5575897 C239.179477,58.7355517 226.899961,45.6463878 211.417094,45.6463878 C211.417094,45.6463878 211.150148,45.6463878 211.150148,45.6463878 C203.67566,46.1806394 196.735065,48.5847716 190.595307,52.5916584 C181.786089,57.9341743 174.845494,65.6808223 170.841304,75.030225 C169.239628,79.3042377 168.43879,83.8453762 167.637952,88.3865147 C166.837114,92.3934016 166.303222,96.4002884 164.968492,100.14005 C162.832924,106.016817 159.629572,111.092207 155.892329,116.434723 C153.489815,120.174484 150.820355,123.914245 148.951733,128.188258 C143.078921,139.674667 141.744191,152.763831 140.142515,165.585869 C139.341677,171.462636 138.273893,180.812039 136.939163,190.962819 C137.740001,191.497071 138.540839,192.298448 139.341677,192.8327 C140.676407,182.147668 142.011137,172.264014 142.545029,165.852995 C143.879759,153.298082 145.481435,140.476044 151.087301,129.523887 C152.955923,125.517 155.625383,121.777239 158.027897,118.037478 C161.498194,112.694962 165.235438,107.352446 167.371006,101.208553 C168.705736,97.2016658 169.506574,92.9276531 170.040466,88.9207663 C170.841304,84.6467536 171.642142,80.1056151 172.976872,76.0987282 C176.714116,67.0164513 183.387765,59.8040548 191.663091,54.7286648 C197.268957,50.7217779 203.942606,48.5847716 210.883202,48.05052 C210.883202,48.05052 211.150148,48.05052 211.150148,48.05052 C225.298285,48.05052 236.510017,60.0711806 240.514207,72.3589671 C241.048099,73.9617219 241.581991,75.5644766 241.848937,77.1672314 C243.450612,83.0439988 245.052288,88.9207663 249.857316,93.1947789 C252.25983,95.3317853 255.196236,96.4002884 258.132642,97.7359174 C259.734318,98.5372948 261.60294,99.0715464 263.204616,100.14005 C272.013833,104.948314 276.018023,115.633346 278.687483,124.448497 C279.488321,127.921132 281.089997,131.393767 283.759457,134.332151 C286.962808,136.736283 290.700052,138.339038 294.704242,138.606164 C304.047352,140.208918 310.987947,144.215805 316.059921,149.825447 C316.593813,149.291195 317.127705,148.489818 317.661597,147.955566 C312.322677,141.811673 305.115136,137.537661 294.971188,135.66778 Z" fill="url(#linearGradient-6)" fill-rule="evenodd"></path>
                        <path d="M54.3726373,12.1102662 C54.1037779,12.1102662 53.8349184,12.1102662 53.5660589,11.8397367 C34.2081775,-4.93308704 5.70907429,6.15861901 5.44021483,6.15861901 C4.63363643,6.42914843 4.0959175,6.15861901 3.82705804,5.34703076 C3.55819858,4.53544252 3.82705804,3.99438369 4.63363643,3.72385427 C4.9024959,3.72385427 34.7458964,-7.90891061 55.4480752,9.94603083 C55.9857941,10.4870897 55.9857941,11.2986779 55.7169346,11.8397367 C55.1792157,11.8397367 54.9103562,12.1102662 54.3726373,12.1102662 Z" fill="url(#linearGradient-7)" fill-rule="evenodd"></path>
                        <path d="M89.2185442,117.376426 C88.9573619,117.376426 88.9573619,117.376426 88.6961796,117.376426 C88.4349974,117.376426 80.0771641,114.483786 72.76406,99.7576221 C72.5028777,99.2316876 72.76406,98.442786 73.2864246,97.9168515 C73.8087892,97.6538843 74.5923361,97.9168515 75.1147006,98.442786 C81.9054401,111.854114 89.4797265,114.746754 89.4797265,114.746754 C90.2632734,115.009721 90.5244557,115.798623 90.2632734,116.324557 C90.2632734,117.113459 89.7409088,117.376426 89.2185442,117.376426 Z" fill="url(#linearGradient-8)" fill-rule="evenodd"></path>
                        <path d="M329.151717,41.9201521 C328.611068,41.9201521 328.340744,41.6419786 328.07042,41.363805 C327.800096,40.8074579 327.800096,39.9729373 328.611068,39.4165903 C329.151717,39.1384167 339.964687,32.1840783 351.047981,35.2439872 C351.858953,35.5221607 352.129278,36.0785078 352.129278,36.9130284 C351.858953,37.747549 351.318305,38.0257226 350.507332,38.0257226 C340.505335,35.5221607 330.233014,41.9201521 330.233014,41.9201521 C329.692365,41.6419786 329.422041,41.9201521 329.151717,41.9201521 Z" fill="url(#linearGradient-9)" fill-rule="evenodd"></path>
                        <path d="M35.3719585,40.2729603 C35.3719585,39.4648968 34.5627886,38.9261879 33.7536188,39.1955424 C32.944449,39.1955424 32.4050025,40.0036058 32.6747257,40.8116693 C32.944449,42.9665052 36.7205748,66.6696999 43.4636566,95.2212753 C44.812273,97.1067567 46.1608893,98.7228836 47.5095057,100.608365 C39.9572541,68.2858268 35.6416817,40.8116693 35.3719585,40.2729603 Z" fill="url(#linearGradient-10)" fill-rule="evenodd"></path>
                        <path d="M88.3251497,77.4524715 C88.0629769,76.6539924 87.5386314,76.3878327 86.7521131,76.3878327 C85.9655948,76.6539924 85.7034221,77.1863118 85.7034221,77.9847909 C89.3738407,93.9543726 88.8494952,120.570342 87.2764586,144.524715 C88.0629769,145.323194 88.8494952,146.121673 89.8981862,147.186312 C91.7333956,122.69962 92.2577411,94.486692 88.3251497,77.4524715 Z" fill="url(#linearGradient-11)" fill-rule="evenodd"></path>
                        <path d="M326.167135,89.4296578 C325.377335,89.6977323 325.114068,90.2338813 325.114068,91.0381049 C325.377335,92.1104029 329.589602,112.75214 335.381468,126.692015 C335.908001,125.887792 336.697801,125.083568 337.224335,124.279345 C331.959001,110.607544 327.746735,90.7700304 327.746735,90.5019558 C327.483468,89.6977323 326.956935,89.4296578 326.167135,89.4296578 Z" fill="url(#linearGradient-12)" fill-rule="evenodd"></path>
                        <path d="M341.844073,57.8565509 C341.049848,58.1229426 340.785107,58.9221179 341.049848,59.7212931 C341.579331,61.0532518 349.786316,80.4998492 357.9933,95.9505703 C358.522783,95.1513951 359.052266,94.3522199 359.581749,93.5530446 C353.227955,81.2990244 346.609419,66.3810867 343.432521,58.6557261 C343.16778,57.8565509 342.373556,57.5901592 341.844073,57.8565509 Z" fill="url(#linearGradient-13)" fill-rule="evenodd"></path>
                        <path d="M356.324485,88.4980989 C356.058231,88.4980989 356.058231,88.4980989 355.791977,88.4980989 C355.259469,88.2307819 354.993215,87.963465 354.993215,87.4288312 C354.726961,86.6268805 355.259469,86.0922467 356.058231,85.2902959 C358.188262,83.1517606 365.110864,76.4688378 364.312103,59.0932386 C364.312103,58.2912878 364.84461,57.756654 365.643372,57.756654 C366.442134,57.756654 366.974642,58.2912878 366.974642,59.0932386 C367.773404,77.8054224 360.318294,84.7556621 357.922008,87.1615143 C357.922008,87.1615143 357.655754,87.4288312 357.655754,87.4288312 C357.655754,87.4288312 357.655754,87.4288312 357.655754,87.4288312 C357.3895,88.2307819 356.856992,88.4980989 356.324485,88.4980989 Z" fill="url(#radialGradient-14)" fill-rule="evenodd"></path>
                        <path d="M332.720063,116.444867 C332.473021,116.444867 332.22598,116.444867 332.22598,116.178317 C331.731897,115.911766 331.484855,115.112116 331.731897,114.312465 C331.731897,114.312465 336.672727,104.183555 333.95527,98.85255 C333.708229,98.3194495 333.95527,97.5197987 334.449353,96.9866982 C334.943436,96.720148 335.684561,96.9866982 336.178644,97.5197987 C339.390183,104.183555 334.202312,115.112116 333.95527,115.645216 C333.708229,116.178317 333.214146,116.444867 332.720063,116.444867 Z" fill="url(#linearGradient-15)" fill-rule="evenodd"></path>
                        <path d="M39.6577947,73.5931559 C40.4562738,73.5931559 40.9885932,73.0807985 40.9885932,72.5684411 C40.9885932,71.7999049 40.4562738,71.2875475 39.9239544,71.2875475 C39.9239544,71.2875475 30.3422053,70.2628327 20.4942966,63.3460076 C21.5589354,65.1392586 22.8897338,66.9325095 23.9543726,68.4695817 C32.2053232,72.5684411 39.1254753,73.3369772 39.6577947,73.5931559 C39.391635,73.5931559 39.6577947,73.5931559 39.6577947,73.5931559 Z" fill="url(#linearGradient-16)" fill-rule="evenodd"></path>
                    </g>
                </g>
                <path d="M180.759551,316.212143 L164.799276,364.252573 L183.951606,399.843987 L184.590017,420.113537 C184.590017,420.113537 132.559519,376.382382 131.123095,367.763833 C129.68667,359.145284 156.978741,291.792922 156.978741,291.792922 L180.759551,316.212143 Z" id="Path" fill="#925F2D" fill-rule="nonzero" mask="url(#mask-3)"></path>
                <path d="M263.274175,482.289166 C263.274175,482.289166 255.772846,402.716836 263.274175,386.596958 C269.658286,373.030724 317.858317,373.030724 324.082825,386.596958 C331.264949,402.078425 324.082825,448.203621 324.082825,448.203621 L263.274175,482.289166 Z" id="Fill-151_2_" fill="#482B46" mask="url(#mask-3)"></path>
                <path d="M335.893429,236.729972 C335.893429,236.729972 345.309991,288.76047 334.457004,322.436651 C323.604017,356.112832 326.317263,381.330067 326.317263,384.841328 C326.317263,388.352588 327.27488,403.195645 327.27488,403.195645 C327.27488,403.195645 280.990081,414.048632 271.573519,406.706905 C261.997353,399.365179 278.755643,232.261094 278.755643,232.261094 C278.755643,232.261094 334.137798,225.557779 335.893429,236.729972 Z" id="Path" fill="url(#linearGradient-17)" fill-rule="nonzero" mask="url(#mask-3)"></path>
                <path d="M270.935108,222.365724 C270.935108,222.365724 292.162274,233.697519 296.311946,238.645205 C300.461617,243.752493 332.062963,332.651227 313.229838,333.60958 C310.995399,333.768446 287.533794,307.9128 287.533794,307.9128 L274.765574,263.064426 L287.054986,256.520713 L287.533794,247.263753 L274.446368,230.026656 L270.935108,222.365724 Z" id="Path" fill="#191319" opacity="0.13" mask="url(#mask-3)"></path>
                <path d="M281.309287,319.883007 C281.309287,319.883007 295.194726,367.763833 300.940425,369.200258 C306.845727,370.796285 333.499387,341.748584 337.968265,330.257186 C342.437142,318.765787 337.649059,309.189622 337.649059,309.189622 C337.649059,309.189622 314.027851,333.768446 313.38944,333.768446 C312.910632,333.768446 302.696056,294.186963 302.696056,294.186963 L281.309287,319.883007 Z" id="Path" fill="#925F2D" fill-rule="nonzero" mask="url(#mask-3)"></path>
                <path d="M268.858689,476.958175 C268.379881,468.499229 270.935108,434.637387 270.935108,434.477785 C270.935108,433.360565 274.446368,406.228097 271.254313,398.407562 C268.062258,390.587027 183.792004,394.896301 183.792004,394.896301 C183.792004,394.896301 184.430415,416.761879 185.388031,448.203621 L252.899996,473.779594 L268.858689,476.958175 Z" id="Path" fill="#191319" fill-rule="nonzero" mask="url(#mask-3)"></path>
                <path d="M198.156251,140.808716 C198.156251,140.808716 188.580086,154.37495 187.143661,163.63191 C185.707237,172.88887 185.866839,191.721995 186.026442,194.116036 C186.186045,196.66968 213.15891,209.916709 213.15891,209.916709 L216.350966,227.792217 C216.350966,227.792217 250.027147,223.163737 250.027147,222.684929 C250.027147,222.206121 248.431119,208.799489 248.431119,208.799489 L247.952311,156.449786 C247.952311,156.449786 209.966855,134.1054 198.156251,140.808716 Z" id="Path" fill="#925F2D" fill-rule="nonzero" mask="url(#mask-3)"></path>
                <path d="M263.593381,143.841168 L259.443709,137.137853 C259.443709,137.137853 252.421188,125.486852 242.206612,122.454399 C242.206612,122.454399 205.01917,114.474261 190.495319,136.180236 C188.899292,138.574277 202.784731,145.596799 202.784731,145.596799 L201.667512,168.898801 L201.667512,168.898801 C201.667512,168.898801 199.113868,185.337885 197.996649,185.816693 C197.039032,186.295501 185.707237,193.318022 185.707237,193.956433 C185.707237,194.594844 186.50525,208.001476 193.048963,210.076312 C199.592676,212.151147 212.680102,209.916709 212.839705,209.757106 C212.999308,209.597503 209.488047,191.083584 207.89202,186.614707 C207.413211,185.178282 204.859567,182.465035 204.380759,177.676952 C204.221156,176.40013 204.859567,174.325294 205.338375,172.729267 C205.976786,170.814034 206.934403,169.218006 208.370828,167.941184 C211.562883,165.547143 215.074143,166.185554 216.191363,171.133239 C216.989377,175.123308 214.27613,179.27298 212.041691,181.826624 C210.445664,183.582254 210.126458,186.135898 210.924472,188.370337 C212.999308,193.796831 216.989377,203.213393 218.266199,203.372996 C218.266199,203.372996 229.278789,215.1836 248.271516,212.789558 C254.017216,208.959092 262.635764,184.220665 264.7106,167.143171 C267.264244,150.225279 263.593381,143.841168 263.593381,143.841168 Z" id="Path" fill="url(#linearGradient-18)" fill-rule="nonzero" mask="url(#mask-3)"></path>
                <path d="M186.50525,158.684225 C186.50525,158.684225 184.909223,161.078266 186.026442,162.514691 C187.143661,164.110718 190.335717,165.547143 190.814525,165.068335 C191.452936,164.589526 191.452936,161.716677 190.654922,159.801444 C189.856908,157.567005 186.984059,157.567005 186.50525,158.684225 Z" id="Path" fill="url(#linearGradient-19)" fill-rule="nonzero" mask="url(#mask-3)"></path>
                <path d="M263.593381,184.220665 C263.593381,223.642546 276.84041,219.652477 292.960288,219.652477 C309.239769,219.652477 322.327195,203.692201 322.327195,184.220665 C322.327195,164.589526 309.080166,148.788854 292.960288,148.788854 C276.84041,148.788854 263.593381,164.589526 263.593381,184.220665" id="Fill-164_2_" fill="#C69071" fill-rule="nonzero" mask="url(#mask-3)"></path>
                <path d="M281.309287,310.945252 C281.309287,310.945252 280.032465,371.594299 281.309287,377.659204 C282.586109,383.724109 279.234451,407.345316 280.670876,409.260549 C282.1073,411.175782 280.35167,448.522827 280.35167,448.522827 C280.35167,448.522827 261.518545,448.522827 259.922518,448.522827 C258.32649,448.522827 238.854954,377.659204 239.493365,376.701587 C239.972173,375.903574 257.847682,313.179691 257.847682,313.179691 L281.309287,310.945252 Z" id="Path" fill="#191319" fill-rule="nonzero" opacity="0.13" mask="url(#mask-3)"></path>
                <path d="M335.095415,228.271026 C330.945743,201.457763 333.65899,163.63191 317.858317,149.427265 C305.090097,137.935866 280.511273,146.075607 270.935108,155.492169 C261.358942,164.908732 269.019875,166.664362 270.615902,165.38754 C274.605971,167.143171 282.882413,174.054387 281.605591,189.535854 C276.657906,206.453746 268.381464,213.747175 271.09471,222.206121 C276.521204,239.922027 295.354329,248.700178 298.227179,265.61807 C306.526522,315.892938 340.202703,262.266412 335.095415,228.271026 Z" id="Fill-166_2_" fill="#60375D" fill-rule="nonzero" mask="url(#mask-3)"></path>
                <path d="M183.472798,237.368383 C183.472798,237.368383 233.109255,218.056449 244.760256,218.535258 C256.411257,219.014066 285.139753,234.814738 288.012602,239.283616 C290.885452,243.752493 306.047714,294.506169 306.208095,296.421402 C306.366919,298.336635 281.947698,322.915459 280.990081,323.234665 C280.032465,323.394267 277.319218,314.775719 277.319218,314.775719 C277.319218,314.775719 270.775505,377.659204 270.935108,379.255231 C271.09471,380.851259 274.605971,400.961206 273.96756,401.75922 C273.329149,402.397631 186.50525,406.228097 180.919154,398.088357 C182.674784,362.018134 187.941675,310.945252 187.941675,310.945252 C187.941675,310.945252 185.228428,321.319432 183.313195,321.319432 C181.397962,321.319432 154.265494,296.581005 154.265494,292.590936 C157.297946,283.174373 174.056236,240.879643 183.472798,237.368383 Z" id="Path" fill="url(#linearGradient-20)" fill-rule="nonzero" mask="url(#mask-3)"></path>
            </g>
            <g id="Group-2" transform="translate(58.688213, 0.000000)">
                <path d="M17.8004776,87.5575 L17.8004776,87.5575 C18.9689464,84.024752 21.0137668,81.0807953 23.6428215,78.72563 C26.5639934,76.6648604 30.3615169,76.959256 33.2826889,79.0200257 C35.035392,81.0807953 35.6196264,83.7303563 35.3275092,86.3799173 C34.4511577,95.8005786 28.3166966,103.749262 21.3058839,109.931571 C19.845298,111.109153 17.8004776,111.109153 16.0477745,110.225966 C8.45272744,104.632449 1.73403199,96.9781613 0.273446024,87.5575 C-0.310788363,84.907939 -0.0186711698,82.258378 1.73403199,80.1976084 C4.36308673,77.842443 8.16061025,77.2536517 11.0817822,79.0200257 C13.7108369,81.0807953 16.0477745,84.024752 17.8004776,87.5575 L17.8004776,87.5575 Z" id="Path_14_" fill="url(#linearGradient-21)"></path>
                <path d="M321.213353,168.544232 C324.389936,166.521276 327.8553,163.920333 331.898224,164.209327 C335.941148,164.498321 339.406512,167.099263 339.117731,170.856181 C338.828951,174.902092 335.074807,178.370015 332.187004,180.681964 C329.299201,182.993913 325.833838,184.727875 322.368474,186.172843 C318.903111,187.328818 315.437747,188.195799 311.683603,188.773786 C309.662141,189.351773 307.351899,188.195799 306.774338,186.172843 C305.907998,184.149888 305.330437,182.415926 305.041657,180.392971 C303.020195,172.590143 302.442634,163.053353 306.774338,155.828512 C307.92946,153.805556 309.950922,152.360588 312.261164,152.360588 C314.571406,152.360588 316.592868,153.516563 317.74799,155.250524 C320.924573,158.718448 320.347012,163.63134 320.058232,167.677251 C320.058232,169.122219 322.079694,169.122219 322.368474,167.677251 C322.657255,163.342346 323.234815,158.140461 320.347012,154.383544 C318.03677,150.91562 313.993846,149.181658 309.950922,150.337633 C305.619217,152.071594 303.886535,157.27348 302.731414,161.319391 C301.576293,166.232283 301.576293,171.434168 302.442634,176.636053 C303.020195,179.236996 303.597755,182.126932 304.464096,184.727875 C304.752876,187.039824 305.907998,188.773786 307.92946,190.218754 C309.373361,191.085735 311.106043,191.085735 312.838725,190.796742 C315.437747,190.507748 318.03677,189.929761 320.635793,189.06278 C325.256277,187.906805 329.299201,185.88385 333.342125,182.993913 C337.38505,180.392971 340.272853,176.636053 341.716754,172.301149 C342.583095,167.966244 339.984072,163.342346 335.363588,162.475365 C330.165542,160.741403 325.256277,163.63134 320.924573,166.521276 C319.191891,167.388257 320.058232,169.122219 321.213353,168.544232 Z" id="Path_13_" fill="url(#linearGradient-22)"></path>
                <path d="M385.137804,24.4788923 C389.188571,21.7871494 393.882728,18.8538359 398.808038,19.3695607 C404.331544,19.947922 409.273628,23.4180898 408.982917,28.9125223 C408.401496,34.4069548 403.459411,39.6122066 399.38946,42.7931938 C395.028797,45.974181 390.377424,48.8659876 385.43534,50.6010715 C380.493256,52.3361554 375.551172,53.7820587 370.318377,54.36042 C367.411269,55.227962 364.21345,53.7820587 363.341317,50.8902522 C362.178474,48.2876263 361.306341,45.3958197 360.72492,42.7931938 C357.817811,31.8043289 356.945679,18.212838 363.050606,8.09151509 C364.50416,5.19970853 367.411269,3.17544394 370.609088,2.88626328 C373.806907,3.17544394 376.714015,4.62134722 378.45828,6.93479246 C382.818943,11.8508636 381.90347,18.5826621 381.322048,24.3662752 C381.322048,26.3905398 384.563208,26.5990771 384.853918,24.5748125 C385.43534,18.212838 385.726051,11.2725023 381.656099,6.0672505 C378.45828,1.15117935 372.353353,-1.1622659 366.829847,0.572818034 C360.72492,2.88626328 358.108522,10.4049603 356.945679,15.8993928 C355.492125,23.1289092 355.492125,30.3584256 356.945679,37.587942 C357.527101,41.3472905 358.689944,45.106639 359.852787,48.8659876 C360.434209,52.0469748 362.178474,54.6496007 364.794871,56.6738653 C366.829847,57.8305879 369.446245,58.1197686 371.771931,57.2522266 C375.551172,56.6738653 379.039702,55.8063233 382.818943,54.6496007 C389.214581,52.9145167 395.319508,50.0227102 400.552303,45.974181 C406.075809,42.5040131 410.145761,37.0095807 412.471447,30.9367869 C413.63429,24.5748125 409.85505,18.5020187 403.459411,17.0561154 C396.870407,14.7873115 390.637847,17.6628844 385.39916,21.2769285 C385.344977,21.3143082 385.263942,21.37055 385.156056,21.4456539 C384.815901,23.6857604 384.809817,24.6968399 385.137804,24.4788923 Z" id="Path_1_" fill="url(#linearGradient-23)"></path>
            </g>
        </g>
    </g>
</svg>